# xmcd
#
# Track frame offsets: 
#        150
#        11825
#        24272
#        37210
#        48863
#        59990
#        71322
#        80992
#        91825
#        102577
#        114088
#        123616
#        136795
#        149194
#        157885
#        171184
#        187047
#        201389
#        213173
#        223328
#        237552
#        251276
#        266708
#        281441
#        294888
#        312521
#        322572
#        337118
#
# Disc length: 4642 seconds
#
# Revision: 0
# Processed by: cddbd v1.5.2PL0 Copyright (c) Steve Scherf et al.
# Submitted via: ExactAudioCopy v0.99pb4
#
DISCID=b112201c
DTITLE=Various Artist - There's A Dream I've Been Saving  [CD3]
DYEAR=1900
DGENRE=Country | Pop
TTITLE0=Lynn Castle - Rose Colored Corner
TTITLE1=The Kitchen Cinq - Need All The Help I Can Get
TTITLE2=Raul Danks and Jon Taylor - You Better Go
TTITLE3=Last Firday's Fire - I Can't Help The Way I Feel
TTITLE4=Honey Ltd. - Tomorrow Your Heart
TTITLE5=Suzi Jane Hokom - Come On Sunshine
TTITLE6=Suzi Jane Hokum - Little War
TTITLE7=Danny Michaels - If You Climb On The Tiger's Back
TTITLE8=The Kitchen Cinq - The Street Song
TTITLE9=The Kitchen Cinq - I Want You
TTITLE10=Raul Danks and Jon Taylor - Puppertry
TTITLE11=Michael Gram - Pastel Dreams
TTITLE12=Danny Michaels - And They Are Changing
TTITLE13=A Handful - Does Anybody Know
TTITLE14=A Handful - Wasn't It You
TTITLE15=Honey Ltd. - Silk 'n' Honey
TTITLE16=Hamilton Streetcar - Invisible People
TTITLE17=Hamilton Streetcar - Flash
TTITLE18=The Aggregation - Maharishi
TTITLE19=The Aggregation - Flying Free
TTITLE20=Last Friday's Fire - Something's Happening
TTITLE21=Ann-Margaret - You Turned My Head Around
TTITLE22=Ann-Margaret - It's A Nice World To Visit (But Not To Live In
TTITLE22=)
TTITLE23=Ann-Margaret - Sam
TTITLE24=The Surprise Package - New Way Home
TTITLE25=Lynn Castle - The Lady Barber
TTITLE26=Collen Lanza - When We're Talked About Tomorrow
TTITLE27=Arthur - Sunshine Soldier
EXTD=
EXTT0=
EXTT1=
EXTT2=
EXTT3=
EXTT4=
EXTT5=
EXTT6=
EXTT7=
EXTT8=
EXTT9=
EXTT10=
EXTT11=
EXTT12=
EXTT13=
EXTT14=
EXTT15=
EXTT16=
EXTT17=
EXTT18=
EXTT19=
EXTT20=
EXTT21=
EXTT22=
EXTT23=
EXTT24=
EXTT25=
EXTT26=
EXTT27=
PLAYORDER=
